<?xml version="1.0" encoding="UTF-8" standalone="no"?>
<svg
   xmlns:dc="http://purl.org/dc/elements/1.1/"
   xmlns:cc="http://creativecommons.org/ns#"
   xmlns:rdf="http://www.w3.org/1999/02/22-rdf-syntax-ns#"
   xmlns:svg="http://www.w3.org/2000/svg"
   xmlns="http://www.w3.org/2000/svg"
   xmlns:sodipodi="http://sodipodi.sourceforge.net/DTD/sodipodi-0.dtd"
   xmlns:inkscape="http://www.inkscape.org/namespaces/inkscape"
   xml:space="preserve"
   version="1.1"
   style="clip-rule:evenodd;fill-rule:evenodd;image-rendering:optimizeQuality;shape-rendering:geometricPrecision;text-rendering:geometricPrecision"
   viewBox="0 0 18796.258 17249.842"
   x="0px"
   y="0px"
   id="svg14"
   sodipodi:docname="delivery.svg"
   width="1342.5898"
   height="1232.1316"
   inkscape:version="0.92.1 r"><metadata
     id="metadata18"><rdf:RDF><cc:Work
         rdf:about=""><dc:format>image/svg+xml</dc:format><dc:type
           rdf:resource="http://purl.org/dc/dcmitype/StillImage" /><dc:title /></cc:Work></rdf:RDF></metadata><sodipodi:namedview
     pagecolor="#ffffff"
     bordercolor="#666666"
     borderopacity="1"
     objecttolerance="10"
     gridtolerance="10"
     guidetolerance="10"
     inkscape:pageopacity="0"
     inkscape:pageshadow="2"
     inkscape:window-width="1920"
     inkscape:window-height="1009"
     id="namedview16"
     showgrid="false"
     fit-margin-top="0"
     fit-margin-left="0"
     fit-margin-right="0"
     fit-margin-bottom="0"
     inkscape:zoom="0.53202532"
     inkscape:cx="920.48578"
     inkscape:cy="719.04549"
     inkscape:window-x="0"
     inkscape:window-y="29"
     inkscape:window-maximized="1"
     inkscape:current-layer="svg14" /><defs
     id="defs4"><style
       type="text/css"
       id="style2">
   
    .fil0 {fill:black}
   
  </style></defs><g
     id="g8"
     transform="translate(-0.07,-0.24708467)"><path
       class="fil0"
       d="m 13676,6994 991,3194 c -1489,1384 -1987,2029 -2652,4262 l -3083,39 -1159,-2687 c 392,-195 1229,-810 1376,-1096 -545,-1024 -1808,-724 -3154,-725 -1298,-1 -2599,-6 -3897,2 -590,837 -913,1672 -773,3027 346,-188 1798,-2381 4181,-1183 1202,604 1891,2280 2793,3400 l 4556,5 127,-605 c 243,-2475 1970,-3606 3889,-3160 840,196 1116,784 1787,124 -791,-1565 -2353,-1607 -2736,-1825 -347,-198 -313,-539 -533,-946 384,-346 1011,-447 836,-1242 -154,-701 -916,-751 -1407,-452 l -295,-460 z m -6687,1985 3924,1437 c -482,3445 -1413,4058 720,3617 157,-531 865,-3428 831,-3957 -67,-1026 -1991,-1560 -2908,-1917 l 316,-2300 c 410,179 176,38 516,336 471,411 714,974 1630,800 356,-68 2138,-751 2417,-969 78,-1745 -1476,-490 -2669,-249 C 11230,5132 10092,3571 9238,3411 7379,3064 7593,3586 7241,5992 7097,6976 6777,8095 6989,8979 Z M 15,5267 c 0,1409 -74,2496 111,3842 783,277 5191,318 5873,-33 224,-759 128,-2844 128,-3809 0,-803 -238,-969 -1017,-969 H 1063 C 235,4298 15,4396 15,5267 Z m 17636,9739 c -587,1853 -3613,1194 -2974,-928 574,-1908 3576,-971 2974,928 z m -2271,-2937 c -3394,1051 -1724,6136 1657,4994 1099,-372 2144,-1748 1620,-3340 -382,-1156 -1686,-2147 -3277,-1654 z M 3753,13078 c 2014,-535 2707,2511 769,2989 -2026,499 -2817,-2444 -769,-2989 z M 3403,12020 C 83,12977 1399,18005 4818,17120 6002,16813 7025,15482 6683,13934 6413,12709 4930,11580 3403,12020 Z M 9162,178 c -1778,935 -365,3308 1215,2518 1673,-837 437,-3386 -1215,-2518 z"
       id="path6"
       inkscape:connector-curvature="0"
       style="fill:#000000" /></g><text
     x="-0.07"
     y="17243.752"
     font-size="5px"
     font-weight="bold"
     id="text10"
     style="font-weight:bold;font-size:5px;font-family:'Helvetica Neue', Helvetica, Arial-Unicode, Arial, Sans-serif;fill:#000000">Created by Jenie Tomboc</text>
<text
     x="-0.07"
     y="17248.752"
     font-size="5px"
     font-weight="bold"
     id="text12"
     style="font-weight:bold;font-size:5px;font-family:'Helvetica Neue', Helvetica, Arial-Unicode, Arial, Sans-serif;fill:#000000">from the Noun Project</text>
<path
     style="fill:#000080;fill-opacity:1;stroke-width:1.87960982"
     d="m 675.87522,1086.4616 -83.15205,-0.5095 -13.01166,-17.3669 c -7.15641,-9.5517 -27.55463,-39.7812 -45.32936,-67.1765 -77.15067,-118.90842 -111.4144,-151.68578 -181.35056,-173.48354 -23.07421,-7.19179 -41.2856,-9.46602 -67.17545,-8.38887 -38.49201,1.60145 -70.80127,12.45174 -105.89795,35.56329 -18.8078,12.38514 -32.4358,23.80433 -66.37418,55.61635 l -18.546799,17.38478 -1.317373,-23.0236 c -3.097583,-54.13615 8.299642,-107.99158 32.119992,-151.77688 3.65564,-6.7196 10.59475,-18.33877 15.42026,-25.82035 l 8.77364,-13.6029 152.24839,-0.13233 c 83.73662,-0.0727 169.57967,-0.81158 190.76235,-1.64188 83.53484,-3.27429 118.11641,4.56903 144.50047,32.77365 14.14506,15.12112 15.50757,19.40908 8.91415,28.0535 -9.93966,13.03158 -60.30518,51.63647 -88.66069,67.95795 -3.36903,1.93921 -1.70919,6.41979 27.1563,73.30478 16.90957,39.18161 35.50416,82.43346 41.32132,96.11525 l 10.57664,24.8759 33.83298,0.026 c 18.60814,0.015 68.55476,-0.5303 110.99252,-1.2108 l 77.15954,-1.2371 8.98591,-28.3642 c 27.86965,-87.97101 56.92885,-144.61205 99.41201,-193.76977 9.82762,-11.37164 31.91817,-34.52603 49.09008,-51.45421 17.1719,-16.92816 31.2117,-31.73008 31.1994,-32.89317 -0.013,-1.16306 -15.6219,-52.40891 -34.688,-113.87964 -19.06607,-61.47074 -34.48917,-111.94142 -34.2735,-112.15708 0.80288,-0.80288 58.475,-23.09944 58.7443,-22.71106 0.1541,0.22233 4.717,7.38228 10.1399,15.91101 5.4228,8.52873 10.5218,15.50678 11.3311,15.50678 0.8093,0 6.4372,-2.32149 12.5064,-5.15886 9.7483,-4.55739 13.2263,-5.15477 29.831,-5.12386 16.7079,0.0311 19.8689,0.59587 28.4532,5.0837 19.8991,10.40313 29.763,28.639 29.7545,55.00868 -0.01,23.78356 -7.306,33.84394 -40.5286,55.86697 -21.1732,14.0356 -21.2744,14.1746 -16.9231,23.24136 1.941,4.04455 5.7756,13.70907 8.5212,21.47673 10.0897,28.54462 18.6968,37.60806 42.5459,44.80165 63.1967,19.06202 87.8633,29.3092 112.3757,46.68401 24.1398,17.11081 44.9089,39.91525 60.4235,66.34508 l 6.0505,10.30733 -7.2589,6.31312 c -14.7736,12.84884 -29.4049,17.34622 -43.9901,13.52167 -4.6087,-1.20846 -18.1875,-6.72239 -30.1753,-12.25316 -26.4636,-12.20942 -41.8701,-16.99571 -66.5457,-20.67356 -96.3551,-14.36154 -180.7719,28.31245 -224.33072,113.40249 -16.01858,31.29154 -25.33389,61.83858 -31.2784,102.56899 -1.64528,11.273 -4.7646,28.8238 -6.93187,39.0019 l -3.94049,18.5056 -79.15516,-0.4499 c -43.53533,-0.2474 -116.57359,-0.6791 -162.30724,-0.9593 z"
     id="path11"
     inkscape:connector-curvature="0"
     transform="scale(14)" /><path
     style="fill:#000080;fill-opacity:1;stroke-width:1.87960982"
     d="m 257.79337,1227.0381 c -56.64913,-10.3323 -102.73828,-46.0565 -129.83335,-100.6353 -29.759167,-59.9453 -27.6069,-133.08564 5.521,-187.62005 8.74321,-14.39288 31.65135,-38.58552 46.73137,-49.35169 15.06172,-10.75311 42.86173,-23.91514 63.80183,-30.20725 15.38368,-4.62251 19.72664,-5.08743 47.93005,-5.13095 28.40496,-0.0438 32.43644,0.38131 47.93005,5.05435 51.54455,15.5464 95.59165,49.97822 120.10481,93.88646 27.24019,48.79303 28.05246,114.18593 2.08544,167.89123 -24.77275,51.2354 -70.46183,89.168 -123.33024,102.3931 -17.54696,4.3894 -65.25055,6.5819 -80.94096,3.7201 z m 62.9138,-78.2626 c 40.91711,-9.0797 71.28999,-37.4799 81.2069,-75.9325 6.73397,-26.1109 2.8984,-60.4561 -9.57334,-85.72315 -27.3889,-55.48847 -88.7689,-73.26778 -150.80809,-43.68304 -37.02579,17.65656 -59.00655,52.71851 -59.32113,94.62429 -0.15656,20.8552 2.66052,32.969 12.45759,53.5689 13.16212,27.6755 38.99779,49.5194 67.71738,57.2547 13.34531,3.5944 41.87143,3.541 58.32069,-0.1092 z"
     id="path13"
     inkscape:connector-curvature="0"
     transform="scale(14)" /><path
     style="fill:#000080;fill-opacity:1;stroke-width:1.87960982"
     d="m 1112.3939,1226.1577 c -31.623,-7.2862 -58.5218,-21.683 -81.8503,-43.8079 -66.97331,-63.5182 -83.50223,-167.9548 -38.10857,-240.78597 29.42907,-47.21702 84.41957,-79.7726 146.42477,-86.68658 92.8337,-10.35158 179.9742,55.40575 199.2072,150.32435 3.993,19.7066 2.9084,62.6048 -2.0427,80.7896 -18.0654,66.352 -69.2555,118.3367 -134.3489,136.4344 -15.0647,4.1883 -22.5579,5.0713 -47.93,5.6475 -21.1056,0.4793 -33.4369,-0.092 -41.3515,-1.9154 z m 67.666,-79.0875 c 32.2301,-6.7668 59.5802,-27.9547 73.9905,-57.3198 21.484,-43.7798 16.4517,-87.2473 -13.8955,-120.02589 -35.6601,-38.51717 -96.1684,-50.56413 -141.6887,-28.20967 -34.0589,16.7259 -56.5974,58.36064 -56.5353,104.43576 0.04,29.5499 8.4968,50.7323 28.0346,70.2195 12.3825,12.3504 21.9911,18.7342 37.7473,25.0791 21.1313,8.5092 48.901,10.7436 72.3471,5.821 z"
     id="path15"
     inkscape:connector-curvature="0"
     transform="scale(14)" /><path
     style="fill:#000080;fill-opacity:1;stroke-width:1.87960982"
     d="m 755.26808,1009.1694 c -9.44773,-2.4722 -13.9967,-6.4324 -17.28799,-15.05052 -4.32211,-11.31722 -2.29536,-25.71518 14.18746,-100.78772 17.16684,-78.18791 29.52397,-147.02885 26.88051,-149.74964 -1.06384,-1.09495 -87.52922,-33.0191 -233.35647,-86.15832 -23.26017,-8.47597 -43.29879,-16.38018 -44.53026,-17.5649 -3.9849,-3.83369 -6.80049,-34.46201 -5.51978,-60.04494 1.35442,-27.05539 3.67553,-43.94878 14.38486,-104.69538 4.10066,-23.26017 10.87421,-67.66595 15.05233,-98.67951 11.75431,-87.25043 16.51262,-106.39368 30.35417,-122.1185 10.54696,-11.98199 22.5408,-16.03282 47.47051,-16.03282 26.08582,0 60.58684,6.00295 76.04021,13.2305 34.74523,16.25037 78.69334,59.75276 150.42733,148.90173 5.60788,6.96931 11.05179,12.67148 12.09757,12.67148 5.65804,0 34.73626,-9.65753 67.92755,-22.56027 43.81147,-17.0312 58.21973,-21.68674 72.72716,-23.49933 31.38816,-3.9217 46.95956,12.12444 47.39076,48.83579 l 0.1771,15.0801 -19.7359,9.82829 c -24.74716,12.32387 -87.36315,37.32497 -123.68929,49.38628 -31.44253,10.43979 -48.40663,12.87503 -65.32336,9.37734 -20.90754,-4.32282 -31.09205,-11.21868 -63.72135,-43.14526 -21.6166,-21.15104 -32.8536,-30.75119 -39.36662,-33.6322 -10.39223,-4.59698 -14.27609,-5.05471 -14.27504,-1.6824 0.001,3.14878 -20.47855,153.54562 -21.57602,158.44911 -0.75816,3.38751 1.56374,4.71916 19.28482,11.06 68.4961,24.50887 112.65614,44.31107 139.78319,62.68138 18.17824,12.3102 36.13447,31.28451 42.53631,44.94799 4.44097,9.47839 5.08994,13.13381 4.9405,27.82821 -0.19353,19.03001 -7.25316,59.72304 -21.68459,124.99405 -8.82947,39.93423 -35.19861,148.82388 -36.31269,149.95096 -0.28377,0.287 -8.88027,2.136 -19.10336,4.1087 -21.95386,4.2365 -48.25962,6.1421 -56.17962,4.0698 z"
     id="path17"
     inkscape:connector-curvature="0"
     transform="scale(14)" /><path
     style="fill:#000080;fill-opacity:1;stroke-width:1.87960982"
     d="M 667.86623,198.29691 C 643.92012,190.10299 624.75391,174.69467 611.92591,153.32475 580.58412,101.11307 598.33,43.43804 654.88226,13.714414 c 40.78198,-21.4348376 84.05739,-14.58251528 113.29776,17.939813 29.81599,33.162547 37.04006,77.882063 18.70468,115.788143 -10.8928,22.51946 -40.07108,45.13396 -67.42751,52.25942 -16.12642,4.2004 -36.86,3.6358 -51.59096,-1.40488 z"
     id="path19"
     inkscape:connector-curvature="0"
     transform="scale(14)" /><path
     style="fill:#ffff00;fill-opacity:1;stroke-width:1.87960982"
     d="M 119.96948,663.05141 C 70.220305,660.28238 30.241557,655.84981 16.238028,651.55036 9.4304365,649.46025 9.1959467,648.7518 6.3668558,621.72755 1.552455,575.73906 0.23061717,526.35287 1.4942837,439.67969 2.8641766,345.72059 3.7402197,336.18385 12.076857,324.47612 c 5.286593,-7.42433 15.79667,-12.41628 31.133395,-14.78734 8.521209,-1.31738 70.084708,-1.79785 182.947668,-1.42781 190.15686,0.62347 182.18398,0.0601 195.97111,13.84723 12.19607,12.19608 12.91008,16.5513 14.91591,90.98266 2.72733,101.20454 0.41898,183.06719 -6.24243,221.38067 -1.76039,10.12493 -2.82227,12.20231 -7.46459,14.60293 -6.77496,3.50348 -42.23857,9.43051 -73.12575,12.22152 -29.18402,2.63709 -192.08764,3.87912 -230.24269,1.75543 z"
     id="path21"
     inkscape:connector-curvature="0"
     transform="scale(14)" /></svg>