<?xml version="1.0" encoding="UTF-8" standalone="no"?>
<svg
   xmlns:dc="http://purl.org/dc/elements/1.1/"
   xmlns:cc="http://creativecommons.org/ns#"
   xmlns:rdf="http://www.w3.org/1999/02/22-rdf-syntax-ns#"
   xmlns:svg="http://www.w3.org/2000/svg"
   xmlns="http://www.w3.org/2000/svg"
   xmlns:sodipodi="http://sodipodi.sourceforge.net/DTD/sodipodi-0.dtd"
   xmlns:inkscape="http://www.inkscape.org/namespaces/inkscape"
   xml:space="preserve"
   version="1.1"
   style="clip-rule:evenodd;fill-rule:evenodd;image-rendering:optimizeQuality;shape-rendering:geometricPrecision;text-rendering:geometricPrecision"
   viewBox="0 0 224 274"
   x="0px"
   y="0px"
   id="svg14"
   sodipodi:docname="order.svg"
   width="224"
   height="274"
   inkscape:version="0.92.1 r"><metadata
     id="metadata18"><rdf:RDF><cc:Work
         rdf:about=""><dc:format>image/svg+xml</dc:format><dc:type
           rdf:resource="http://purl.org/dc/dcmitype/StillImage" /><dc:title></dc:title></cc:Work></rdf:RDF></metadata><sodipodi:namedview
     pagecolor="#ffffff"
     bordercolor="#666666"
     borderopacity="1"
     objecttolerance="10"
     gridtolerance="10"
     guidetolerance="10"
     inkscape:pageopacity="0"
     inkscape:pageshadow="2"
     inkscape:window-width="1920"
     inkscape:window-height="1009"
     id="namedview16"
     showgrid="false"
     fit-margin-top="0"
     fit-margin-left="0"
     fit-margin-right="0"
     fit-margin-bottom="0"
     inkscape:zoom="0.68905109"
     inkscape:cx="112"
     inkscape:cy="102.75"
     inkscape:window-x="0"
     inkscape:window-y="29"
     inkscape:window-maximized="1"
     inkscape:current-layer="svg14" /><defs
     id="defs4"><style
       type="text/css"
       id="style2">
   
    .fil0 {fill:black}
   
  </style></defs><g
     id="g8"><path
       class="fil0"
       d="m 44,129 h 97 c 5,0 9,4 9,9 v 0 c 0,5 -4,9 -9,9 H 44 c -5,0 -9,-4 -9,-9 v 0 c 0,-5 4,-9 9,-9 z m 0,42 h 97 c 5,0 9,4 9,9 v 0 c 0,5 -4,9 -9,9 H 44 c -5,0 -9,-4 -9,-9 v 0 c 0,-5 4,-9 9,-9 z m 0,42 h 63 c 5,0 9,4 9,9 v 0 c 0,5 -4,9 -9,9 H 44 c -5,0 -9,-4 -9,-9 v 0 c 0,-5 4,-9 9,-9 z M 22,40 h 90 c 0,3 0,6 0,9 0,35 28,64 63,64 4,0 7,-1 10,-1 v 140 c 0,12 -10,22 -22,22 H 22 C 10,274 0,264 0,252 V 62 C 0,50 10,40 22,40 Z M 175,0 c 27,0 49,22 49,49 0,27 -22,49 -49,49 -27,0 -49,-22 -49,-49 0,-27 22,-49 49,-49 z m -6,28 c 0,-4 3,-7 6,-7 4,0 7,3 7,7 v 14 h 14 c 4,0 7,3 7,7 0,4 -3,7 -7,7 h -14 v 14 c 0,4 -3,7 -7,7 -3,0 -6,-3 -6,-7 V 56 h -15 c -3,0 -6,-3 -6,-7 0,-4 3,-7 6,-7 h 15 z"
       id="path6"
       inkscape:connector-curvature="0"
       style="fill:#000000" /></g><path
     style="fill:#000080;fill-opacity:1;stroke-width:1.45127118"
     d="M 17.8125,272.68101 C 12.063687,271.24901 8.2869569,268.7577 4.7510593,264.06503 1.9209644,260.30907 1.8391906,257.65915 1.4748654,157.89831 1.1075551,57.320077 1.1511658,55.502208 4.0445725,50.782676 5.737075,48.021979 9.5963988,44.797559 13.125852,43.195375 18.760258,40.637653 23.043687,40.40647 65.341631,40.377212 l 46.077859,-0.03187 v 8.402717 c 0,35.099562 27.92149,64.145001 61.83301,64.322051 l 10.73055,0.056 v 72.24033 72.24031 l -3.26536,4.79782 c -1.79595,2.63879 -5.10843,6.164 -7.36108,7.83379 -4.01831,2.9786 -5.48589,3.04063 -77.643013,3.28157 -40.451006,0.13505 -75.5065,-0.24247 -77.901097,-0.83894 z m 95.13936,-43.44427 c 2.15411,-1.74428 3.3052,-4.2445 3.3052,-7.17901 0,-9.00343 -0.0342,-9.01112 -40.094321,-9.01112 -31.789895,0 -36.685734,0.30146 -39.006621,2.40184 -3.501701,3.169 -3.377689,9.93591 0.248543,13.56214 2.740543,2.74054 4.83757,2.90255 37.572273,2.90255 31.530856,0 34.968976,-0.24231 37.974926,-2.6764 z m 34.74941,-42.31301 c 3.47942,-3.47943 3.72486,-8.33905 0.64335,-12.73853 l -2.25921,-3.22545 H 92.947766 c -47.40854,0 -53.423795,0.25895 -55.791648,2.40183 -3.501701,3.169 -3.377689,9.93592 0.248543,13.56215 2.795041,2.79505 4.83757,2.90254 55.148305,2.90254 50.310734,0 52.353254,-0.10754 55.148304,-2.90254 z m 0,-42.08687 c 3.47942,-3.47942 3.72486,-8.33904 0.64335,-12.73852 l -2.25921,-3.22546 H 92.947766 c -47.40854,0 -53.423795,0.25896 -55.791648,2.40184 -3.501701,3.16899 -3.377689,9.93591 0.248543,13.56214 2.795041,2.79505 4.83757,2.90255 55.148305,2.90255 50.310734,0 52.353254,-0.1075 55.148304,-2.90255 z"
     id="path20"
     inkscape:connector-curvature="0" /><path
     style="fill:#ffff00;fill-opacity:1;stroke-width:1.45127118"
     d="m 162.21398,95.587792 c -12.86266,-3.926825 -24.91677,-14.094221 -30.75022,-25.937205 -2.792,-5.668271 -3.35465,-9.12293 -3.35465,-20.597621 0,-16.111879 3.08112,-24.203375 12.9854,-34.10165 9.91117,-9.9051605 18.07106,-13.0170026 34.18091,-13.0351687 12.13532,-0.013686 14.66341,0.4461977 21.1017,3.8385934 8.90533,4.6922983 18.70914,15.0361983 22.9144,24.1767553 2.41243,5.243633 3.12509,9.588958 3.13604,19.12147 0.0122,10.590366 -0.56087,13.506813 -4.04991,20.611843 -5.08863,10.362387 -16.00624,20.359403 -26.53724,24.299555 -8.15267,3.050301 -22.39602,3.830789 -29.62643,1.623428 z M 179.30632,75.81919 c 2.71788,-1.903676 3.22546,-3.616544 3.22546,-10.884534 v -8.625334 h 8.67417 c 7.651,0 8.95459,-0.427967 11.05145,-3.628178 2.20218,-3.360957 2.20218,-3.895399 0,-7.256356 -2.09686,-3.200211 -3.40045,-3.628178 -11.05145,-3.628178 h -8.67417 v -8.230535 c 0,-5.621995 -0.76123,-9.07168 -2.40184,-10.884534 -5.88921,-6.507504 -12.11087,-0.622267 -12.11087,11.455994 v 7.659075 h -8.41738 c -9.28445,0 -11.90042,1.595102 -11.90042,7.256356 0,5.661254 2.61597,7.256356 11.90042,7.256356 h 8.41738 v 7.981992 c 0,6.046963 0.70364,8.685637 2.90254,10.884533 3.49395,3.49395 4.23385,3.550721 8.38471,0.643343 z"
     id="path22"
     inkscape:connector-curvature="0" /></svg>