<?xml version="1.0" encoding="UTF-8" standalone="no"?>
<svg
   xmlns:dc="http://purl.org/dc/elements/1.1/"
   xmlns:cc="http://creativecommons.org/ns#"
   xmlns:rdf="http://www.w3.org/1999/02/22-rdf-syntax-ns#"
   xmlns:svg="http://www.w3.org/2000/svg"
   xmlns="http://www.w3.org/2000/svg"
   xmlns:sodipodi="http://sodipodi.sourceforge.net/DTD/sodipodi-0.dtd"
   xmlns:inkscape="http://www.inkscape.org/namespaces/inkscape"
   xml:space="preserve"
   version="1.1"
   style="clip-rule:evenodd;fill-rule:evenodd;image-rendering:optimizeQuality;shape-rendering:geometricPrecision;text-rendering:geometricPrecision"
   viewBox="0 0 863 568"
   x="0px"
   y="0px"
   id="svg14"
   sodipodi:docname="pay.svg"
   width="863"
   height="568"
   inkscape:version="0.92.1 r"><metadata
     id="metadata18"><rdf:RDF><cc:Work
         rdf:about=""><dc:format>image/svg+xml</dc:format><dc:type
           rdf:resource="http://purl.org/dc/dcmitype/StillImage" /><dc:title></dc:title></cc:Work></rdf:RDF></metadata><sodipodi:namedview
     pagecolor="#ffffff"
     bordercolor="#666666"
     borderopacity="1"
     objecttolerance="10"
     gridtolerance="10"
     guidetolerance="10"
     inkscape:pageopacity="0"
     inkscape:pageshadow="2"
     inkscape:window-width="1920"
     inkscape:window-height="1009"
     id="namedview16"
     showgrid="false"
     fit-margin-top="0"
     fit-margin-left="0"
     fit-margin-right="0"
     fit-margin-bottom="0"
     inkscape:zoom="0.47158032"
     inkscape:cx="431.5"
     inkscape:cy="213"
     inkscape:window-x="0"
     inkscape:window-y="29"
     inkscape:window-maximized="1"
     inkscape:current-layer="svg14" /><defs
     id="defs4"><style
       type="text/css"
       id="style2">
   
    .fil0 {fill:black}
   
  </style></defs><g
     id="g8"><path
       class="fil0"
       d="m 50,0 h 763 c 27,0 50,23 50,50 v 468 c 0,28 -23,50 -50,50 H 50 C 23,568 0,546 0,518 V 50 C 0,23 23,0 50,0 Z m 60,389 h 280 v 63 H 110 Z m 0,-162 h 654 v 63 H 110 Z m 484,135 c 26,0 49,14 60,35 12,-21 35,-35 60,-35 39,0 69,31 69,69 0,39 -30,69 -69,69 -25,0 -48,-14 -60,-34 -11,20 -34,34 -60,34 -38,0 -69,-30 -69,-69 0,-38 31,-69 69,-69 z"
       id="path6"
       inkscape:connector-curvature="0"
       style="fill:#000000" /></g><path
     style="fill:#000080;fill-opacity:1;stroke-width:2.12052941"
     d="M 28.236919,561.17243 C 14.797421,554.47524 5.3955179,542.28684 2.3490338,527.61202 0.81489426,520.2221 0.27886532,440.26467 0.66999847,277.15661 1.2014153,55.54832 1.5174312,37.058319 4.8784849,30.919218 10.904703,19.912088 19.312817,11.12611 28.548054,6.1859346 L 37.293561,1.507728 H 431.87841 826.46328 l 10.3707,6.4117573 c 5.70389,3.5264667 13.26292,10.5266847 16.79786,15.5560397 l 6.42718,9.144284 0.62848,246.329351 c 0.44722,175.28087 -0.0475,248.66097 -1.71502,254.41318 -3.01349,10.39494 -15.64368,24.37491 -26.48035,29.31032 -8.10659,3.69201 -25.85502,3.86511 -400.89386,3.90962 l -392.411736,0.0466 z M 624.20558,493.96065 c 6.6091,-3.02574 15.98987,-9.70644 20.84614,-14.84599 l 8.82961,-9.34463 9.36886,9.36886 c 5.15289,5.15289 14.80469,11.91687 21.44846,15.03108 10.13967,4.75287 14.97422,5.65887 30.10409,5.64148 21.26535,-0.0244 32.59488,-4.29577 47.26712,-17.82017 13.96173,-12.86947 21.14787,-30.355 21.14787,-51.45764 0,-14.39687 -0.90439,-18.46907 -6.72967,-30.3019 -7.36541,-14.96127 -18.27801,-25.67704 -33.82978,-33.2196 -7.73671,-3.75227 -13.67085,-4.79426 -27.85554,-4.89121 -15.53794,-0.10624 -19.66988,0.68485 -29.9515,5.73408 -6.55984,3.22149 -16.17351,10.39711 -21.36368,15.94583 l -9.43669,10.08857 -8.91541,-9.98852 c -5.03717,-5.64347 -14.19268,-12.58 -21.04691,-15.94583 -10.47472,-5.14373 -14.59306,-5.94586 -30.15599,-5.87353 -15.19656,0.0706 -19.90187,0.99287 -29.99035,5.87798 -13.97467,6.76691 -27.89336,20.98904 -34.26892,35.01605 -6.33008,13.9269 -6.35515,41.89802 -0.05,55.76583 8.25075,18.14703 24.87765,33.04036 43.79137,39.22554 13.4966,4.41367 36.33398,2.6123 50.79089,-4.00628 z M 390.36173,420.31231 V 388.50437 H 249.34651 108.3313 v 31.80794 31.80794 H 249.34651 390.36173 Z M 765.22056,258.62193 764.63519,226.28386 H 437.01338 109.39156 l -0.58536,32.33807 -0.58536,32.33808 h 328.79254 328.79253 z"
     id="path20"
     inkscape:connector-curvature="0" /></svg>