<?xml version="1.0" encoding="UTF-8" standalone="no"?>
<svg
   xmlns:dc="http://purl.org/dc/elements/1.1/"
   xmlns:cc="http://creativecommons.org/ns#"
   xmlns:rdf="http://www.w3.org/1999/02/22-rdf-syntax-ns#"
   xmlns:svg="http://www.w3.org/2000/svg"
   xmlns="http://www.w3.org/2000/svg"
   xmlns:sodipodi="http://sodipodi.sourceforge.net/DTD/sodipodi-0.dtd"
   xmlns:inkscape="http://www.inkscape.org/namespaces/inkscape"
   xml:space="preserve"
   version="1.1"
   style="clip-rule:evenodd;fill-rule:evenodd;image-rendering:optimizeQuality;shape-rendering:geometricPrecision;text-rendering:geometricPrecision"
   viewBox="0 0 6371.6124 3328.0898"
   x="0px"
   y="0px"
   id="svg14"
   sodipodi:docname="track.svg"
   width="1044.5266"
   height="545.5885"
   inkscape:version="0.92.1 r"><metadata
     id="metadata18"><rdf:RDF><cc:Work
         rdf:about=""><dc:format>image/svg+xml</dc:format><dc:type
           rdf:resource="http://purl.org/dc/dcmitype/StillImage" /><dc:title></dc:title></cc:Work></rdf:RDF></metadata><sodipodi:namedview
     pagecolor="#ffffff"
     bordercolor="#666666"
     borderopacity="1"
     objecttolerance="10"
     gridtolerance="10"
     guidetolerance="10"
     inkscape:pageopacity="0"
     inkscape:pageshadow="2"
     inkscape:window-width="1920"
     inkscape:window-height="1009"
     id="namedview16"
     showgrid="false"
     fit-margin-top="0"
     fit-margin-left="0"
     fit-margin-right="0"
     fit-margin-bottom="0"
     inkscape:zoom="0.01"
     inkscape:cx="11464.163"
     inkscape:cy="-7245.9949"
     inkscape:window-x="0"
     inkscape:window-y="29"
     inkscape:window-maximized="1"
     inkscape:current-layer="svg14"
     scale-x="6.1"
     units="px"
     inkscape:document-units="px" /><defs
     id="defs4"><style
       type="text/css"
       id="style2">
   
    .fil0 {fill:black}
   
  </style></defs><g
     id="g8"
     transform="translate(-0.07)"><path
       class="fil0"
       d="m 185,1776 c -430,947 -87,1559 799,1530 157,-7 408,-1 835,-19 136,-5 854,45 692,-371 -94,-242 -602,-178 -872,-250 -428,-113 -268,-410 -112,-704 L 2313,478 c 56,-168 -16,-315 -179,-331 -271,-25 -440,537 -755,978 -205,6 -567,-21 -749,30 -198,54 -259,271 -353,449 -20,36 -52,97 -92,172 z m 6002,0 c 430,947 87,1559 -799,1530 -157,-7 -408,-1 -835,-19 -136,-5 -854,45 -692,-371 93,-242 602,-178 872,-250 428,-113 268,-410 112,-704 L 4059,478 c -56,-168 16,-315 179,-331 271,-25 440,537 755,978 205,6 567,-21 749,30 198,54 259,271 353,449 20,36 52,97 92,172 z M 2767,346 c -96,0 -174,-77 -174,-173 0,-95 78,-173 174,-173 h 876 c 96,0 173,78 173,173 0,96 -77,173 -173,173 z m 124,2863 c -96,0 -174,-78 -174,-173 0,-96 78,-174 174,-174 h 582 c 96,0 174,78 174,174 0,95 -78,173 -174,173 z"
       id="path6"
       inkscape:connector-curvature="0"
       style="fill:#000000" /></g><text
     x="-0.07"
     y="3322"
     font-size="5px"
     font-weight="bold"
     id="text10"
     style="font-weight:bold;font-size:5px;font-family:'Helvetica Neue', Helvetica, Arial-Unicode, Arial, Sans-serif;fill:#000000">Created by Jenie Tomboc</text>
<text
     x="-0.07"
     y="3327"
     font-size="5px"
     font-weight="bold"
     id="text12"
     style="font-weight:bold;font-size:5px;font-family:'Helvetica Neue', Helvetica, Arial-Unicode, Arial, Sans-serif;fill:#000000">from the Noun Project</text>
<path
     style="fill:#ffff00;fill-opacity:1;stroke-width:17.51589012"
     d="m 2646.2461,275.4072 c -61.4222,-72.9961 -59.4192,-144.9215 5.8535,-210.1942 l 51.2003,-51.2003 h 499.5734 c 492.9596,0 500.174,0.5218 544.9314,39.4108 26.3279,22.876 49.5135,65.538 55.2628,101.6854 8.051,50.6174 1.0913,72.7493 -37.1801,118.2322 l -47.0853,55.9576 h -513.6046 -513.6047 z"
     id="path20"
     inkscape:connector-curvature="0" /><path
     style="fill:#ffff00;fill-opacity:1;stroke-width:17.51589012"
     d="m 2813.018,3178.0128 c -46.6864,-26.4915 -87.9418,-91.0062 -88.8868,-139 -1.0854,-55.1222 48.5478,-129.2285 101.1425,-151.0139 35.3415,-14.639 153.6858,-19.4017 387.7285,-15.6041 l 336.8608,5.4659 42.2369,49.1454 c 55.8405,64.9742 55.8398,152.0224 0,216.9952 l -42.2386,49.1454 -347.49,4.31 c -266.6573,3.3074 -357.2278,-1.2156 -389.3517,-19.4439 z"
     id="path22"
     inkscape:connector-curvature="0" /><path
     style="fill:#000080;fill-opacity:1;stroke-width:17.51589012"
     d="M 770.48879,3287.1231 C 530.75776,3265.3833 347.49058,3187.8576 212.75363,3051.1902 -13.57724,2821.6165 -50.631457,2463.6822 104.1887,2002.481 166.09921,1818.0528 417.42612,1328.6609 486.83919,1257.3717 586.00053,1155.53 628.27466,1146.2104 1025.8671,1138.5393 l 360.4735,-6.955 69.8538,-107.7516 c 38.4195,-59.2634 134.876,-222.6079 214.3478,-362.9879 165.9015,-293.0504 249.7837,-410.498 333.4513,-466.8816 145.392,-97.9797 316.6515,1.0956 316.6515,183.1859 0,54.0034 -86.1023,229.4469 -440.9854,898.5591 -242.542,457.2993 -460.007,882.6873 -483.2555,945.3066 -85.6199,230.6149 -19.4329,371.467 205.8876,438.1479 62.7303,18.5644 228.3463,45.6097 368.0355,60.1009 277.6491,28.8028 348.1126,44.4909 432.5667,96.3074 77.9441,47.8226 115.5926,112.6393 117.53,202.3433 2.0585,95.3099 -60.7316,168.6859 -180.4073,210.8224 -123.8994,43.6239 -1264.4493,86.0523 -1569.52781,58.3864 z"
     id="path24"
     inkscape:connector-curvature="0" /><path
     style="fill:#000080;fill-opacity:1;stroke-width:17.51589012"
     d="m 4851.6911,3285.8687 c -327.5471,-6.8055 -641.8669,-20.3822 -698.4883,-30.1706 -193.3776,-33.4303 -308.6753,-118.4924 -308.6753,-227.728 0,-70.6868 56.1576,-175.7572 112.5735,-210.6242 76.2026,-47.0956 238.1076,-81.5103 496.4949,-105.5355 330.9709,-30.7738 469.6818,-85.4649 534.8736,-210.8904 46.5368,-89.5344 28.0054,-204.332 -63.5442,-393.6421 -41.9604,-86.7676 -254.9227,-494.7255 -473.2494,-906.573 -357.6974,-674.7535 -396.9578,-757.0891 -396.9578,-832.4863 0,-94.6209 30.6397,-149.3024 105.2888,-187.905 72.8632,-37.679 140.2454,-32.3384 212.6375,16.8533 83.3277,56.6226 155.1185,157.8628 329.6909,464.9338 79.4145,139.6892 175.4765,302.4538 213.4711,361.6992 l 69.0813,107.7189 362.541,6.9877 c 409.1117,7.8853 451.0926,17.9125 545.3496,130.2581 82.9492,98.8674 326.3619,584.8691 386.338,771.3682 28.4197,88.3727 61.0797,231.3362 72.5778,317.6965 71.8898,539.9522 -238.5394,902.8536 -799.3674,934.4852 -57.8024,3.2602 -373.0884,0.3591 -700.6356,-6.4458 z"
     id="path26"
     inkscape:connector-curvature="0" /></svg>